<?xml version="1.0" encoding="UTF-8" standalone="no"?>
<!-- Created with Inkscape (http://www.inkscape.org/) -->

<svg
   width="128.82002mm"
   height="36.797207mm"
   viewBox="0 0 128.82002 36.797207"
   version="1.1"
   id="svg5"
   inkscape:version="1.1.2 (76b9e6a115, 2022-02-25)"
   sodipodi:docname="m4gun.svg"
   inkscape:export-filename="/home/yuvalh/godotProjects/ragdoll game/assets/m4gun.png"
   inkscape:export-xdpi="500.03409"
   inkscape:export-ydpi="500.03409"
   xmlns:inkscape="http://www.inkscape.org/namespaces/inkscape"
   xmlns:sodipodi="http://sodipodi.sourceforge.net/DTD/sodipodi-0.dtd"
   xmlns="http://www.w3.org/2000/svg"
   xmlns:svg="http://www.w3.org/2000/svg">
  <sodipodi:namedview
     id="namedview7"
     pagecolor="#ffffff"
     bordercolor="#eeeeee"
     borderopacity="1"
     inkscape:pageshadow="0"
     inkscape:pageopacity="0"
     inkscape:pagecheckerboard="false"
     inkscape:document-units="mm"
     showgrid="false"
     inkscape:zoom="1.4142136"
     inkscape:cx="146.72466"
     inkscape:cy="123.03658"
     inkscape:window-width="1920"
     inkscape:window-height="1007"
     inkscape:window-x="0"
     inkscape:window-y="0"
     inkscape:window-maximized="1"
     inkscape:current-layer="layer1"
     inkscape:snap-page="false"
     inkscape:snap-object-midpoints="true"
     inkscape:snap-smooth-nodes="true"
     inkscape:snap-bbox="true"
     inkscape:bbox-paths="true"
     inkscape:bbox-nodes="true"
     inkscape:snap-bbox-edge-midpoints="true"
     inkscape:snap-bbox-midpoints="true"
     inkscape:snap-global="false"
     fit-margin-top="0"
     fit-margin-left="0"
     fit-margin-right="0"
     fit-margin-bottom="0" />
  <defs
     id="defs2">
    <inkscape:path-effect
       effect="fillet_chamfer"
       id="path-effect24319"
       is_visible="true"
       lpeversion="1"
       satellites_param="F,0,0,1,0,0.079375,0,1 @ F,0,0,1,0,0.079375,0,1 @ F,0,0,1,0,0.079375,0,1 @ F,0,0,1,0,0.079375,0,1 @ F,0,0,1,0,0.079375,0,1 @ F,0,0,1,0,0.079375,0,1 @ F,0,0,1,0,0.079375,0,1 @ F,0,0,1,0,0.079375,0,1 @ F,0,0,1,0,0.079375,0,1 @ F,0,0,1,0,0.079375,0,1 @ F,0,0,1,0,0.079375,0,1 @ F,0,0,1,0,0.079375,0,1 @ F,0,0,1,0,0.079375,0,1 @ F,0,0,1,0,0.079375,0,1 @ F,0,0,1,0,0.079375,0,1 @ F,0,0,1,0,0.079375,0,1 @ F,0,0,1,0,0.079375,0,1 @ F,0,0,1,0,0.079375,0,1 @ F,0,0,1,0,0.079375,0,1 @ F,0,1,1,0,0.037250773,0,1 @ F,0,0,1,0,0.037250773,0,1 @ F,0,0,1,0,0.079375,0,1 @ F,0,0,1,0,0.079375,0,1 | F,0,0,1,0,0.079375,0,1 @ F,0,0,1,0,0.079375,0,1 @ F,0,0,1,0,0.079375,0,1 @ F,0,0,1,0,0.079375,0,1 @ F,0,0,1,0,0.079375,0,1 @ F,0,0,1,0,0.079375,0,1 @ F,0,0,1,0,0.079375,0,1 @ F,0,0,1,0,0.079375,0,1 @ F,0,0,1,0,0.079375,0,1 @ F,0,0,1,0,0.079375,0,1 @ F,0,0,1,0,0.079375,0,1 @ F,0,0,1,0,0.079375,0,1 @ F,0,0,1,0,0.079375,0,1 @ F,0,0,1,0,0.079375,0,1 @ F,0,0,1,0,0.079375,0,1 @ F,0,0,1,0,0.079375,0,1 @ F,0,0,1,0,0.079375,0,1 @ F,0,0,1,0,0.079375,0,1 @ F,0,0,1,0,0.079375,0,1 @ F,0,0,1,0,0.079375,0,1 @ F,0,0,1,0,0.079375,0,1 @ F,0,0,1,0,0.079375,0,1 @ F,0,0,1,0,0.079375,0,1"
       unit="px"
       method="auto"
       mode="F"
       radius="0.3"
       chamfer_steps="1"
       flexible="false"
       use_knot_distance="true"
       apply_no_radius="true"
       apply_with_radius="true"
       only_selected="false"
       hide_knots="false" />
    <inkscape:path-effect
       effect="fillet_chamfer"
       id="path-effect23279"
       is_visible="true"
       lpeversion="1"
       satellites_param="F,0,0,1,0,0.079375,0,1 @ F,0,0,1,0,0.079375,0,1 @ F,0,0,1,0,0.079375,0,1 @ F,0,0,1,0,0.079375,0,1 @ F,0,0,1,0,0.079375,0,1 @ F,0,0,1,0,0.079375,0,1 @ F,0,0,1,0,0.079375,0,1 @ F,0,0,1,0,0.079375,0,1 @ F,0,0,1,0,0.079375,0,1 @ F,0,0,1,0,0.079375,0,1 @ F,0,0,1,0,0.079375,0,1 @ F,0,0,1,0,0.079375,0,1 @ F,0,0,1,0,0.079375,0,1 @ F,0,0,1,0,0.079375,0,1 @ F,0,0,1,0,0.079375,0,1 @ F,0,0,1,0,0.079375,0,1 @ F,0,0,1,0,0.079375,0,1 @ F,0,0,1,0,0.079375,0,1 @ F,0,0,1,0,0.079375,0,1 @ F,0,1,1,0,0.037250773,0,1 @ F,0,0,1,0,0.037250773,0,1 @ F,0,0,1,0,0.079375,0,1 @ F,0,0,1,0,0.079375,0,1"
       unit="px"
       method="auto"
       mode="F"
       radius="0.3"
       chamfer_steps="1"
       flexible="false"
       use_knot_distance="true"
       apply_no_radius="true"
       apply_with_radius="true"
       only_selected="false"
       hide_knots="false" />
    <inkscape:path-effect
       effect="fillet_chamfer"
       id="path-effect21896"
       is_visible="true"
       lpeversion="1"
       satellites_param="F,0,0,1,0,0.52916667,0,2 @ F,0,0,1,0,0.52916667,0,2 @ F,0,0,1,0,0.52916667,0,2 @ F,0,0,1,0,0.52916667,0,2 @ F,0,0,1,0,0.52916667,0,2 @ F,0,0,1,0,0.52916667,0,2 @ F,0,0,1,0,0.52916667,0,2 @ F,0,0,1,0,0.52916667,0,2 @ F,0,0,1,0,0.52916667,0,2"
       unit="px"
       method="auto"
       mode="F"
       radius="2"
       chamfer_steps="1"
       flexible="false"
       use_knot_distance="true"
       apply_no_radius="true"
       apply_with_radius="true"
       only_selected="false"
       hide_knots="false" />
  </defs>
  <g
     inkscape:label="Layer 1"
     inkscape:groupmode="layer"
     id="layer1"
     transform="translate(-44.028851,-151.07391)">
    <path
       style="opacity:1;fill:#343434;fill-opacity:1;stroke-width:0.7;stroke-linecap:round;stroke-linejoin:round"
       d="m 85.203738,170.84349 c -1.106183,2.47626 0.140267,4.13418 0.476689,4.3768 0.212385,0.15316 0.439326,0.0966 0.319929,-0.0339 -0.559338,-0.61155 -1.233981,-3.26217 1.358741,-4.46329 -0.694551,0.0106 -1.167755,-0.25184 -2.155359,0.12039 z"
       id="path19106"
       sodipodi:nodetypes="csscc" />
    <path
       id="path19071"
       style="opacity:1;fill:#343434;fill-opacity:1;stroke-width:2.64567;stroke-linecap:round;stroke-linejoin:round"
       d="m 287.10156,643.5 -0.0937,1.82617 c -0.93437,0.57672 -0.12362,5.87117 -0.96875,8.35352 0,0 -30.8759,44.80986 -31.45703,45.79492 -0.58112,0.98506 -1.23131,2.53005 0.34766,2.9707 1.57896,0.44066 30.64972,9.06921 33.16601,7.40625 0.69832,-0.48782 1.78125,-1.76758 1.78125,-1.76758 0.9608,-1.81712 -3.31783,-3.54113 -0.43359,-8.35156 l 8.94922,-16.00781 c 2.21354,-2.03044 4.00137,-1.08101 6.28906,-1.35352 0.70332,-0.0839 1.20701,-0.89317 0.96484,-1.37695 -0.82894,-1.65607 -2.49696,-2.61743 -2.4707,-6.24805 l 4.99414,-8.54687 2.98438,-0.10352 1.31836,-0.92187 0.8125,-20.58594 z"
       transform="scale(0.26458333)" />
    <path
       id="path18988"
       style="opacity:1;fill:#343434;fill-opacity:1;stroke-width:2.64567;stroke-linecap:round;stroke-linejoin:round"
       d="m 287.10156,643.5 -0.0937,1.82617 c -0.93437,0.57672 -0.12362,5.87117 -0.96875,8.35352 0,0 -30.8759,44.80986 -31.45703,45.79492 -0.58112,0.98506 -1.23131,2.53005 0.34766,2.9707 1.57896,0.44066 30.64972,9.06921 33.16601,7.40625 0.69832,-0.48782 1.78125,-1.76758 1.78125,-1.76758 0.9608,-1.81712 -3.31783,-3.54113 -0.43359,-8.35156 l 8.94922,-16.00781 c 2.21354,-2.03044 4.00137,-1.08101 6.28906,-1.35352 0.70332,-0.0839 1.20701,-0.89317 0.96484,-1.37695 -0.82894,-1.65607 -2.49696,-2.61743 -2.4707,-6.24805 l 4.99414,-8.54687 2.98438,-0.10352 1.31836,-0.92187 0.8125,-20.58594 z"
       transform="scale(0.26458333)" />
    <path
       style="opacity:1;fill:#898989;fill-opacity:1;stroke-width:0.7;stroke-linecap:round;stroke-linejoin:round"
       d="m 142.19511,160.50902 c 0,0 -0.17593,-7.2645 -0.38413,-8.50764 -0.20821,-1.24315 -1.73791,-1.06423 -2.1517,-0.46403 -0.41378,0.6002 -4.72221,6.83611 -4.76765,7.29097 -0.0255,0.25522 -0.19419,1.94925 -0.19419,1.94925 l 1.09007,-0.032 c 0,0 -0.0456,-1.67574 0.0955,-1.99984 0.17487,-0.40173 2.33342,-4.32692 2.49618,-4.59676 0.13959,-0.23143 2.04518,-0.078 2.38453,0 0.13246,0.0305 0.60704,0.016 0.60918,0.35554 l 0.0382,6.04672 z"
       id="path7178"
       sodipodi:nodetypes="csssccsssscc" />
    <path
       id="rect879"
       style="fill:#454545;fill-opacity:1;stroke-width:2.4553;stroke-linecap:round;stroke-linejoin:round"
       d="m 186.89844,606.27344 c -1.86686,0 -3.36914,1.50228 -3.36914,3.36914 v 6.59961 c 0,1.86686 1.50228,3.37109 3.36914,3.37109 h 370.02148 l 0.16211,-0.99023 a 0.55652548,0.55652548 0 0 1 0.32422,-0.41602 l 1.69336,-0.75391 a 1.4101175,1.4101175 0 0 1 0.57422,-0.12109 l 10.62109,0.0117 a 0.49436416,0.49436416 0 0 1 0.4375,0.26563 l 0.30469,0.58593 a 0.4959431,0.4959431 0 0 0 0.43945,0.26758 l 43.82422,0.16797 a 0.64698322,0.64698322 0 0 0 0.49414,-0.22656 l 0.59961,-0.70313 a 0.65024911,0.65024911 0 0 1 0.49609,-0.22851 h 8.07813 a 0.64776362,0.64776362 0 0 1 0.49414,0.22851 l 1.16992,1.38281 a 0.64776362,0.64776362 0 0 0 0.49414,0.22852 h 2.33008 a 0.45001473,0.45001473 0 0 0 0.41406,-0.27734 l 0.36133,-0.86719 a 0.45001473,0.45001473 0 0 1 0.41602,-0.27539 h 0.45703 a 0.37779371,0.37779371 0 0 1 0.36719,0.29101 l 0.15625,0.67188 a 0.37779371,0.37779371 0 0 0 0.36914,0.29297 h 0.69336 a 0.36422162,0.36422162 0 0 0 0.35742,-0.29492 l 0.12305,-0.63282 a 0.36422162,0.36422162 0 0 1 0.35742,-0.29492 h 0.56836 a 0.40664314,0.40664314 0 0 1 0.38867,0.28711 l 0.17187,0.55664 a 0.40664314,0.40664314 0 0 0 0.38868,0.28711 h 0.47656 a 0.44279931,0.44279931 0 0 0 0.41015,-0.2793 0.32348769,0.32348769 0 0 1 0.34961,-0.11523 l 11.65039,0.20312 a 0.60400527,0.60400527 0 0 1 0.47657,0.24805 l 0.11328,0.1543 a 1.3974632,1.3974632 0 0 0 0.1875,0.20898 l 0.15039,0.13672 h 1.05664 c 1.86686,0 3.36914,-1.50423 3.36914,-3.37109 v -6.59961 c 0,-1.86686 -1.50228,-3.36914 -3.36914,-3.36914 h -0.50195 c -0.14663,0.0567 -0.35189,0.0843 -0.46094,0.18359 l -0.12696,0.11524 a 2.977754,2.977754 0 0 0 -0.39843,0.44335 l -0.0195,0.0273 a 0.60400527,0.60400527 0 0 1 -0.47657,0.24609 l -11.65039,0.20508 a 0.32348769,0.32348769 0 0 1 -0.34961,-0.11719 0.44279931,0.44279931 0 0 0 -0.41015,-0.27734 h -0.47656 a 0.40664314,0.40664314 0 0 0 -0.38868,0.28516 l -0.17187,0.55859 a 0.40664314,0.40664314 0 0 1 -0.38867,0.28516 h -0.56836 a 0.36422162,0.36422162 0 0 1 -0.35742,-0.29297 l -0.12305,-0.63282 a 0.36422162,0.36422162 0 0 0 -0.35742,-0.29492 h -0.69336 a 0.37779371,0.37779371 0 0 0 -0.36914,0.29102 l -0.15625,0.67187 a 0.37779371,0.37779371 0 0 1 -0.36719,0.29297 h -0.45703 a 0.45001473,0.45001473 0 0 1 -0.41602,-0.27734 l -0.36133,-0.86524 a 0.45001473,0.45001473 0 0 0 -0.41406,-0.27734 h -2.33008 a 0.64776362,0.64776362 0 0 0 -0.49414,0.22852 l -1.16992,1.38085 a 0.64776362,0.64776362 0 0 1 -0.49414,0.22852 h -8.07813 a 0.65024911,0.65024911 0 0 1 -0.49609,-0.22852 L 615.79492,607.75 a 0.64698322,0.64698322 0 0 0 -0.49414,-0.22656 l -43.82422,0.16797 a 0.4959431,0.4959431 0 0 0 -0.43945,0.26757 l -0.30469,0.58594 a 0.49436416,0.49436416 0 0 1 -0.4375,0.26758 l -10.62109,0.01 a 1.4101175,1.4101175 0 0 1 -0.57422,-0.1211 l -1.69336,-0.75195 h -0.002 a 0.55652548,0.55652548 0 0 1 -0.32227,-0.41797 l -0.20898,-1.25781 z m 457.30078,1.78711 c 2.67084,-0.0602 5.32637,-0.064 5.69336,0.0664 0.78629,0.27931 0.87057,0.92225 0.0371,1.16993 -0.54622,0.16214 -10.35394,0.43721 -11.57813,-0.1875 -0.43993,-0.22451 -0.4875,-0.65708 0.0566,-0.77735 0.43355,-0.0958 3.12018,-0.21125 5.79102,-0.27148 z m 1.24609,3.72656 c 2.79691,0.0521 5.50594,0.32318 5.78321,0.54101 0.65612,0.51549 0.63223,1.04921 0,1.64649 -0.4901,0.46295 -10.97659,0.53336 -12.09571,-0.37305 -0.45709,-0.37039 -0.31408,-0.70814 0,-1.03711 0.63194,-0.66158 3.5156,-0.82941 6.3125,-0.77734 z"
       transform="scale(0.26458333)" />
    <rect
       style="fill:#2f2f2f;fill-opacity:1;stroke-width:0.7;stroke-linecap:round;stroke-linejoin:round"
       id="rect3177"
       width="25.362738"
       height="10.755747"
       x="108.91132"
       y="156.79662"
       ry="0.8915903" />
    <g
       id="g7143"
       transform="translate(-1.1487331,0.08169258)">
      <rect
         style="opacity:0.235482;fill:#898989;fill-opacity:1;stroke-width:0.698557;stroke-linecap:round;stroke-linejoin:round"
         id="rect5687"
         width="1.2617741"
         height="10.755747"
         x="111.20873"
         y="156.71492"
         ry="0.62828821"
         rx="0.20458916" />
      <rect
         style="opacity:0.235482;fill:#898989;fill-opacity:1;stroke-width:0.698557;stroke-linecap:round;stroke-linejoin:round"
         id="rect7115"
         width="1.2617741"
         height="10.755747"
         x="113.63136"
         y="156.71492"
         ry="0.62828821"
         rx="0.20458916" />
      <rect
         style="opacity:0.235482;fill:#898989;fill-opacity:1;stroke-width:0.698557;stroke-linecap:round;stroke-linejoin:round"
         id="rect7117"
         width="1.2617741"
         height="10.755747"
         x="116.05398"
         y="156.71492"
         ry="0.62828821"
         rx="0.20458916" />
      <rect
         style="opacity:0.235482;fill:#898989;fill-opacity:1;stroke-width:0.698557;stroke-linecap:round;stroke-linejoin:round"
         id="rect7119"
         width="1.2617741"
         height="10.755747"
         x="118.4766"
         y="156.71492"
         ry="0.62828821"
         rx="0.20458916" />
      <rect
         style="opacity:0.235482;fill:#898989;fill-opacity:1;stroke-width:0.698557;stroke-linecap:round;stroke-linejoin:round"
         id="rect7121"
         width="1.2617741"
         height="10.755747"
         x="120.89922"
         y="156.71492"
         ry="0.62828821"
         rx="0.20458916" />
      <rect
         style="opacity:0.235482;fill:#898989;fill-opacity:1;stroke-width:0.698557;stroke-linecap:round;stroke-linejoin:round"
         id="rect7123"
         width="1.2617741"
         height="10.755747"
         x="123.32185"
         y="156.71492"
         ry="0.62828821"
         rx="0.20458916" />
      <rect
         style="opacity:0.235482;fill:#898989;fill-opacity:1;stroke-width:0.698557;stroke-linecap:round;stroke-linejoin:round"
         id="rect7125"
         width="1.2617741"
         height="10.755747"
         x="125.74448"
         y="156.71492"
         ry="0.62828821"
         rx="0.20458916" />
      <rect
         style="opacity:0.235482;fill:#898989;fill-opacity:1;stroke-width:0.698557;stroke-linecap:round;stroke-linejoin:round"
         id="rect7127"
         width="1.2617741"
         height="10.755747"
         x="128.1671"
         y="156.71492"
         ry="0.62828821"
         rx="0.20458916" />
      <rect
         style="opacity:0.235482;fill:#898989;fill-opacity:1;stroke-width:0.698557;stroke-linecap:round;stroke-linejoin:round"
         id="rect7129"
         width="1.2617741"
         height="10.755747"
         x="130.58972"
         y="156.71492"
         ry="0.62828821"
         rx="0.20458916" />
      <rect
         style="opacity:0.235482;fill:#898989;fill-opacity:1;stroke-width:0.698557;stroke-linecap:round;stroke-linejoin:round"
         id="rect7131"
         width="1.2617741"
         height="10.755747"
         x="133.01234"
         y="156.71492"
         ry="0.62828821"
         rx="0.20458916" />
    </g>
    <rect
       style="opacity:1;fill:#707070;fill-opacity:1;stroke-width:0.7;stroke-linecap:round;stroke-linejoin:round"
       id="rect8891"
       width="3.4226906"
       height="7.5496254"
       x="105.48863"
       y="158.39967"
       rx="0.49787268"
       ry="0.63088572" />
    <path
       id="rect9192"
       style="opacity:1;fill:#4d4d4d;fill-opacity:1;stroke-width:2.64567;stroke-linecap:round;stroke-linejoin:round"
       d="m 275.75195,599.08398 c -1.04247,0 -1.88086,1.06378 -1.88086,2.38477 v 21.74805 c -0.306,1.09684 -0.0937,12.68945 -0.0937,12.68945 0.35232,0.0589 0.70421,0.11923 1.05664,0.17773 0.27144,0.19197 0.58384,0.30274 0.91797,0.30274 h 0.79102 c 4.0826,0.80775 7.96712,2.35957 10.51758,8.9082 0,0 23.77097,0.75926 24.08203,1.33008 0.17544,1.00252 -0.15024,19.21559 0.0117,19.4707 0.16817,0.0809 6.93642,-0.0915 8.11523,-0.4707 0.74116,-0.44546 1.49951,-0.97434 0.0957,-2.43555 -3.36613,-2.8617 -9.29855,-11.05676 1.03125,-17.17578 5.90607,-1.02663 13.76268,-0.5778 19.01758,-0.17773 1.60929,0.67861 5.81484,2.50365 6.85938,8.28515 0.49284,2.72792 -0.92578,2.92788 -2.93555,7.48633 -1.1066,2.50995 0.6377,4.79451 4.99023,3.71485 l 40.91993,-7.21875 c 3.33634,-0.49637 5.68588,-1.26982 2.05273,-4.46485 0.30168,0.24854 -0.39197,-11.57951 0.20899,-17.25195 h 5.62109 c 1.04247,0 1.88086,-1.06378 1.88086,-2.38477 v -5.49804 c 0.16713,-0.58707 0.17918,-1.35339 0,-2.41016 v -24.625 c 0,-1.32099 -0.83839,-2.38477 -1.88086,-2.38477 z"
       transform="scale(0.26458333)" />
    <path
       id="rect9440"
       style="opacity:1;fill:#787878;fill-opacity:1;stroke-width:2.64567;stroke-linecap:round;stroke-linejoin:round"
       d="m 279.75977,593.04492 c -1.04248,0 -1.88086,1.06378 -1.88086,2.38477 v 1.85937 c 0,1.32099 0.83838,2.38282 1.88086,2.38282 h 116 c 1.04247,0 1.88085,-1.06183 1.88085,-2.38282 v -1.85937 c 0,-1.32099 -0.83838,-2.38477 -1.88085,-2.38477 h -4.09571 c -0.21569,0.12008 -0.38672,0.24923 -0.38672,0.38477 v 1.11328 c 0,0.62147 -0.50158,1.12109 -1.12304,1.12109 h -1.06836 c -0.62143,0 -1.1211,-0.49962 -1.1211,-1.12109 v -1.11328 c 0,-0.13554 -0.17395,-0.26468 -0.39257,-0.38477 h -2.3711 c -0.21605,0.1202 -0.38867,0.24907 -0.38867,0.38477 v 1.11328 c 0,0.62147 -0.49963,1.12109 -1.12109,1.12109 h -1.06836 c -0.62143,0 -1.12305,-0.49962 -1.12305,-1.12109 v -1.11328 c 0,-0.13554 -0.17396,-0.26468 -0.39258,-0.38477 h -2.11328 c -0.21569,0.12008 -0.38672,0.24923 -0.38672,0.38477 v 1.11328 c 0,0.62147 -0.50159,1.12109 -1.12304,1.12109 h -1.06836 c -0.62143,0 -1.1211,-0.49962 -1.1211,-1.12109 v -1.11328 c 0,-0.13554 -0.17395,-0.26468 -0.39258,-0.38477 h -2.37109 c -0.21606,0.1202 -0.38867,0.24907 -0.38867,0.38477 v 1.11328 c 0,0.62147 -0.49963,1.12109 -1.1211,1.12109 h -1.06836 c -0.62142,0 -1.12304,-0.49962 -1.12304,-1.12109 v -1.11328 c 0,-0.13554 -0.17396,-0.26468 -0.39258,-0.38477 h -1.93359 c -0.21606,0.1202 -0.38868,0.24907 -0.38868,0.38477 v 1.11328 c 0,0.62147 -0.49962,1.12109 -1.12109,1.12109 h -1.07031 c -0.62143,0 -1.1211,-0.49962 -1.1211,-1.12109 v -1.11328 c 0,-0.13554 -0.17395,-0.26468 -0.39257,-0.38477 h -2.3711 c -0.21569,0.12008 -0.38672,0.24923 -0.38672,0.38477 v 1.11328 c 0,0.62147 -0.50158,1.12109 -1.12304,1.12109 h -1.06836 c -0.62143,0 -1.1211,-0.49962 -1.1211,-1.12109 v -1.11328 c 0,-0.13554 -0.17395,-0.26468 -0.39257,-0.38477 h -2.11329 c -0.21605,0.1202 -0.38867,0.24907 -0.38867,0.38477 v 1.11328 c 0,0.62147 -0.49964,1.12109 -1.12109,1.12109 h -1.07031 c -0.62143,0 -1.1211,-0.49962 -1.1211,-1.12109 v -1.11328 c 0,-0.13554 -0.17395,-0.26468 -0.39258,-0.38477 h -2.36914 c -0.21605,0.1202 -0.38867,0.24907 -0.38867,0.38477 v 1.11328 c 0,0.62147 -0.50158,1.12109 -1.12304,1.12109 h -1.06836 c -0.62143,0 -1.1211,-0.49962 -1.1211,-1.12109 v -1.11328 c 0,-0.13554 -0.17395,-0.26468 -0.39258,-0.38477 h -2.0664 c -0.2157,0.12008 -0.38672,0.24923 -0.38672,0.38477 v 1.11328 c 0,0.62147 -0.5016,1.12109 -1.12305,1.12109 h -1.06836 c -0.62143,0 -1.12109,-0.49962 -1.12109,-1.12109 v -1.11328 c 0,-0.13554 -0.17396,-0.26468 -0.39258,-0.38477 h -2.37109 c -0.21606,0.1202 -0.38867,0.24907 -0.38867,0.38477 v 1.11328 c 0,0.62147 -0.49963,1.12109 -1.1211,1.12109 h -1.06836 c -0.62143,0 -1.12304,-0.49962 -1.12304,-1.12109 v -1.11328 c 0,-0.13554 -0.17396,-0.26468 -0.39258,-0.38477 z"
       transform="scale(0.26458333)" />
    <path
       style="opacity:1;fill:#343434;fill-opacity:1;stroke-width:0.7;stroke-linecap:round;stroke-linejoin:round"
       d="m 71.692599,159.24093 -23.858266,0.10718 a 5.5571921,5.5571921 5.1820106 0 1 -1.049261,-0.0952 l -2.294751,-0.43033 a 0.38965102,0.38965102 136.98744 0 0 -0.458852,0.42807 l 2.539194,21.79055 a 0.19222171,0.19222171 13.317188 0 0 0.351625,0.0832 l 5.514767,-8.40152 a 1.6359449,1.6359449 141.20537 0 1 0.784825,-0.6309 l 5.337776,-2.03511 a 2.5594068,2.5594068 170.81133 0 1 1.023114,-0.1655 l 6.959971,0.303 a 0.5035843,0.5035843 136.07386 0 0 0.525478,-0.50614 l -0.01405,-2.33325 a 0.52007279,0.52007279 135.15144 0 1 0.525945,-0.52318 l 4.193448,0.0474 a 0.51770639,0.51770639 135.02082 0 0 0.523533,-0.52316 l -0.06973,-6.58846 a 0.53239956,0.53239956 44.568108 0 0 -0.534761,-0.52676 z"
       id="path21571"
       sodipodi:nodetypes="cccccccccc"
       inkscape:path-effect="#path-effect21896"
       inkscape:original-d="m 72.22176,159.23855 -24.916588,0.11194 -3.334951,-0.62541 2.66169,22.84177 6.095521,-9.28628 6.326672,-2.41215 8.017303,0.34904 -0.02043,-3.39157 5.251714,0.0594 z" />
  </g>
</svg>
